<?xml version="1.0" encoding="utf-8"?>
<!-- Generator: Adobe Illustrator 20.1.0, SVG Export Plug-In . SVG Version: 6.00 Build 0)  -->
<svg version="1.1" id="Layer_1" xmlns="http://www.w3.org/2000/svg" xmlns:xlink="http://www.w3.org/1999/xlink" x="0px" y="0px"
	 viewBox="0 0 400 225" style="enable-background:new 0 0 400 225;" xml:space="preserve">
<style type="text/css">
	.st0{fill:#DEDEDE;}
	.st1{opacity:0.1;fill:#34495E;}
	.st2{fill:#62C484;}
	.st3{fill:#E64C3B;}
	.st4{fill:none;}
	.st5{fill:#FFFFFF;}
	.st6{fill:#34495E;}
	.st7{fill:#FFFFFF;stroke:#34495E;stroke-width:4;stroke-miterlimit:10;}
</style>
<g>
	<path class="st0" d="M250.3,36.2h-12v5h7v7.5h5V36.2L250.3,36.2z M226.3,36.2h-12v5h12V36.2L226.3,36.2z M202.3,36.2h-12v5h12V36.2
		L202.3,36.2z M178.3,36.2h-12v5h12V36.2L178.3,36.2z M156.3,36.2h-5v5l0,0c0,2.1,0,4,0,4h5V36.2L156.3,36.2z M156.3,57.2h-5v12h5
		V57.2L156.3,57.2z M156.3,81.2h-5v12h5V81.2L156.3,81.2z M156.3,105.2h-5v12h5V105.2L156.3,105.2z M156.3,129.2h-5v12h5V129.2
		L156.3,129.2z M169,142.4h-12v5h12V142.4L169,142.4z M193,142.4h-12v5h12V142.4L193,142.4z M217,142.4h-12v5h12V142.4L217,142.4z
		 M241,142.4h-12v5h12V142.4L241,142.4z M250.3,132.7h-5v12h5V132.7L250.3,132.7z M250.3,108.7h-5v12h5V108.7L250.3,108.7z
		 M250.3,84.7h-5v12h5V84.7L250.3,84.7z M250.3,60.7h-5v12h5V60.7L250.3,60.7z"/>
</g>
<path class="st1" d="M207.9,145.9c-1.3-2.1-3.6-3.2-5.8-3.2c-1.3,0-2.6,0.4-3.8,1.1l-0.5,0.3c-0.4-2.4-2.1-4.3-4.4-5.1
	c-0.8-0.3-1.5-0.4-2.3-0.4c-1.5,0-3,0.5-4.3,1.5c-0.2-0.8-0.6-1.5-1-2.2c-1.4-1.9-3.5-2.9-5.7-2.9c-1.4,0-2.8,0.4-4.1,1.3
	c0-1.1,0-2.1,0-3c0-2.9,0-8.4,0-11.4c0.2-3.5-2.3-6.5-5.8-7c-0.4-0.1-0.8-0.1-1.2-0.1c0,0,0,0,0,0c-3.8,0-6.8,3-6.8,6.8
	c0,11,0,24.6,0,35.6c0,0.7,0.1,1.4,0.1,2.3l-0.4-0.2c-2.2-1.3-4.8-2.1-7.4-2.2c-0.4,0-0.7-0.1-1.1-0.1c-1.9,0-3.7,0.5-5.3,1.3
	c-1.9,1.1-3,2.6-2.7,4.8c0.2,1.9,1.4,3.6,3.2,4.3c3.5,1.6,6.7,3.9,9.3,6.7c1.9,2.1,3.7,4.3,5.5,6.4c0.3,0.4,0.5,0.8,0.7,1.2
	c1.4,4,3.8,7.6,7,10.4c2.7,2.5,6.2,4,9.9,4.3c1.3,0.1,2.5,0.1,3.8,0.1c1.3,0,2.7,0,4,0c3.2,0,6.4-1,9.1-2.8c2.8-1.9,5.1-4.4,6.7-7.2
	c2.8-4.8,4.2-10.2,4.2-15.7c0-7.2,0-14.5,0-21.7C208.9,148,208.6,146.9,207.9,145.9C208,145.9,208,145.9,207.9,145.9z"/>
<path class="st2" d="M133.3,127.1c0-6.5,2.9-12.3,7.4-16.3V36.2h-99v111.2h91.6L133.3,127.1C133.3,127.1,133.3,127.1,133.3,127.1z"
	/>
<rect x="259.6" y="36.2" class="st3" width="99" height="111.2"/>
<title>questionaire</title>
<rect y="0" class="st4" width="400" height="225"/>
<g>
	<path class="st5" d="M104.4,109.9H80.6l-3.8,9.7H62.1l23.6-54.9h14.7l23,54.9h-15.3L104.4,109.9z M100.1,99l-7.5-19.6L84.9,99
		H100.1z"/>
	<g>
		<path class="st6" d="M224.2,78.6c0,5.7-3.7,10.3-9.5,11.9c7,1.4,11.3,6.8,11.3,13.9c0,9.4-8.2,15.3-21.2,15.3h-27.1V64.7h26.1
			C216.3,64.7,224.2,70.1,224.2,78.6z M209.5,81.1c0-3.3-2.4-5.3-6.4-5.2h-11v10.7h11C207.1,86.6,209.5,84.5,209.5,81.1z
			 M211.2,102.6c0-3.4-3.1-5.6-8.2-5.6h-11v11.5h11C208.1,108.5,211.2,106.3,211.2,102.6z"/>
	</g>
	<path class="st5" d="M313,76.5c-8.5,0-14.9,6.7-14.9,15.4c0,8.9,6.4,15.6,14.9,15.6c4.5,0,9.8-2.5,13.6-6.4l8.4,9
		c-5.9,6.2-14.7,10.2-22.8,10.2c-16.5,0-28.8-12.1-28.8-28.2c0-15.8,12.6-27.7,29.4-27.7c8.2,0,16.7,3.6,22.2,9.4l-8.3,10
		C323,79.3,317.7,76.5,313,76.5z"/>
</g>
<path class="st7" d="M194,154c-1.3-2.1-3.6-3.2-5.8-3.2c-1.3,0-2.6,0.4-3.8,1.1l-0.5,0.3c-0.4-2.4-2.1-4.3-4.4-5.1
	c-0.8-0.3-1.5-0.4-2.3-0.4c-1.5,0-3,0.5-4.3,1.5c-0.2-0.8-0.6-1.5-1-2.2c-1.4-1.9-3.5-2.9-5.7-2.9c-1.4,0-2.8,0.4-4.1,1.3
	c0-1.1,0-2.1,0-3c0-2.9,0-8.4,0-11.4c0.2-3.5-2.3-6.5-5.8-7c-0.4-0.1-0.8-0.1-1.2-0.1c0,0,0,0,0,0c-3.8,0-6.8,3-6.8,6.8
	c0,11,0,24.6,0,35.6c0,0.7,0.1,1.4,0.1,2.3l-0.4-0.2c-2.2-1.3-4.8-2.1-7.4-2.2c-0.4,0-0.7-0.1-1.1-0.1c-1.9,0-3.7,0.5-5.3,1.3
	c-1.9,1.1-3,2.6-2.7,4.8c0.2,1.9,1.4,3.6,3.2,4.3c3.5,1.6,6.7,3.9,9.3,6.7c1.9,2.1,3.7,4.3,5.5,6.4c0.3,0.4,0.5,0.8,0.7,1.2
	c1.4,4,3.8,7.6,7,10.4c2.7,2.5,6.2,4,9.9,4.3c1.3,0.1,2.5,0.1,3.8,0.1c1.3,0,2.7,0,4,0c3.2,0,6.4-1,9.1-2.8c2.8-1.9,5.1-4.4,6.7-7.2
	c2.8-4.8,4.2-10.2,4.2-15.7c0-7.2,0-14.5,0-21.7C194.9,156.1,194.6,155,194,154C194,154,194,154,194,154z"/>
</svg>
